<?xml version="1.0" encoding="UTF-8" standalone="no"?>
<svg
   viewBox="0 0 1399.4251 1399.4252"
   width="370.26459mm"
   height="370.26459mm"
   version="1.1"
   id="svg58"
   inkscape:version="1.3 (0e150ed6c4, 2023-07-21)"
   sodipodi:docname="prusa_mk3_outer_frame.svg"
   xmlns:inkscape="http://www.inkscape.org/namespaces/inkscape"
   xmlns:sodipodi="http://sodipodi.sourceforge.net/DTD/sodipodi-0.dtd"
   xmlns="http://www.w3.org/2000/svg"
   xmlns:svg="http://www.w3.org/2000/svg">
  <sodipodi:namedview
     id="namedview58"
     pagecolor="#ffffff"
     bordercolor="#000000"
     borderopacity="0.25"
     inkscape:showpageshadow="2"
     inkscape:pageopacity="0.0"
     inkscape:pagecheckerboard="0"
     inkscape:deskcolor="#d1d1d1"
     showgrid="false"
     inkscape:zoom="0.51717105"
     inkscape:cx="482.43226"
     inkscape:cy="735.73337"
     inkscape:window-width="1920"
     inkscape:window-height="1017"
     inkscape:window-x="-8"
     inkscape:window-y="-8"
     inkscape:window-maximized="1"
     inkscape:current-layer="g58"
     inkscape:document-units="mm" />
  <desc
     id="desc1">prusa_mk3_outer_frame.dxf - scale = 1.000000, origin = (0.000000, 0.000000), method = manual</desc>
  <defs
     id="defs4">
    <marker
       id="DistanceX"
       orient="auto"
       refX="0"
       refY="0"
       style="overflow:visible">
      <path
         d="M 3,-3 -3,3 M 0,-5 V 5"
         style="stroke:#000000;stroke-width:0.5"
         id="path1" />
    </marker>
    <pattern
       id="Hatch"
       patternUnits="userSpaceOnUse"
       width="8"
       height="8"
       x="0"
       y="0">
      <path
         d="M8 4 l-4,4"
         stroke="#000000"
         stroke-width="0.25"
         linecap="square"
         id="path2" />
      <path
         d="M6 2 l-4,4"
         stroke="#000000"
         stroke-width="0.25"
         linecap="square"
         id="path3" />
      <path
         d="M4 0 l-4,4"
         stroke="#000000"
         stroke-width="0.25"
         linecap="square"
         id="path4" />
    </pattern>
    <symbol
       id="*MODEL_SPACE" />
    <symbol
       id="*PAPER_SPACE" />
  </defs>
  <g
     inkscape:groupmode="layer"
     inkscape:label="0"
     id="g58"
     transform="translate(0.5,276.40551)">
    <path
       d="m 1213.7953,1104 a 9.6378,9.6378 0 0 0 -19.2756,0 9.6378,9.6378 0 0 0 19.2756,0 z"
       style="fill:none;stroke:#000000"
       id="path5" />
    <path
       d="m 1213.7953,1016.315 a 9.6378,9.6378 0 0 0 -19.2756,0 9.6378,9.6378 0 0 0 19.2756,0 z"
       style="fill:none;stroke:#000000"
       id="path6" />
    <path
       d="m 1126.1102,1016.315 a 9.6378,9.6378 0 0 0 -19.2756,0 9.6378,9.6378 0 0 0 19.2756,0 z"
       style="fill:none;stroke:#000000"
       id="path7" />
    <path
       d="m 1126.1102,1104 a 9.6378,9.6378 0 0 0 -19.2756,0 9.6378,9.6378 0 0 0 19.2756,0 z"
       style="fill:none;stroke:#000000"
       id="path8" />
    <path
       d="m 1073.9528,1104 a 9.6378,9.6378 0 0 0 -19.2756,0 9.6378,9.6378 0 0 0 19.2756,0 z"
       style="fill:none;stroke:#000000"
       id="path9" />
    <path
       d="m 986.26772,1104 a 9.6377955,9.6377955 0 0 0 -19.27559,0 9.6377955,9.6377955 0 0 0 19.27559,0 z"
       style="fill:none;stroke:#000000"
       id="path10" />
    <path
       d="m 986.26772,1016.315 a 9.6377955,9.6377955 0 0 0 -19.27559,0 9.6377955,9.6377955 0 0 0 19.27559,0 z"
       style="fill:none;stroke:#000000"
       id="path11" />
    <path
       d="m 1073.9528,1016.315 a 9.6378,9.6378 0 0 0 -19.2756,0 9.6378,9.6378 0 0 0 19.2756,0 z"
       style="fill:none;stroke:#000000"
       id="path12" />
    <path
       d="m 431.43307,1104 a 9.6377955,9.6377955 0 0 0 -19.27559,0 9.6377955,9.6377955 0 0 0 19.27559,0 z"
       style="fill:none;stroke:#000000"
       id="path13" />
    <path
       d="m 431.43307,1016.315 a 9.6377955,9.6377955 0 0 0 -19.27559,0 9.6377955,9.6377955 0 0 0 19.27559,0 z"
       style="fill:none;stroke:#000000"
       id="path14" />
    <path
       d="m 343.74803,1016.315 a 9.637795,9.637795 0 0 0 -19.27559,0 9.637795,9.637795 0 0 0 19.27559,0 z"
       style="fill:none;stroke:#000000"
       id="path15" />
    <path
       d="m 343.74803,1104 a 9.637795,9.637795 0 0 0 -19.27559,0 9.637795,9.637795 0 0 0 19.27559,0 z"
       style="fill:none;stroke:#000000"
       id="path16" />
    <path
       d="m 291.59055,1104 a 9.637795,9.637795 0 0 0 -19.27559,0 9.637795,9.637795 0 0 0 19.27559,0 z"
       style="fill:none;stroke:#000000"
       id="path17" />
    <path
       d="m 291.59055,1016.315 a 9.637795,9.637795 0 0 0 -19.27559,0 9.637795,9.637795 0 0 0 19.27559,0 z"
       style="fill:none;stroke:#000000"
       id="path18" />
    <path
       d="m 203.90551,1016.315 a 9.6377955,9.6377955 0 0 0 -19.27559,0 9.6377955,9.6377955 0 0 0 19.27559,0 z"
       style="fill:none;stroke:#000000"
       id="path19" />
    <path
       d="m 203.90551,1104 a 9.6377955,9.6377955 0 0 0 -19.27559,0 9.6377955,9.6377955 0 0 0 19.27559,0 z"
       style="fill:none;stroke:#000000"
       id="path20" />
    <path
       d="m 157.22835,1096.063 a 6.047245,6.047245 0 0 0 -12.09449,0 6.047245,6.047245 0 0 0 12.09449,0 z"
       style="fill:none;stroke:#000000"
       id="path21" />
    <path
       d="m 1257.0709,1096.063 a 6.04725,6.04725 0 0 0 -12.0945,0 6.04725,6.04725 0 0 0 12.0945,0 z"
       style="fill:none;stroke:#000000"
       id="path22" />
    <path
       d="m 1302.4252,1096.063 a 6.04725,6.04725 0 0 0 -12.0945,0 6.04725,6.04725 0 0 0 12.0945,0 z"
       style="fill:none;stroke:#000000"
       id="path23" />
    <path
       d="M 0,-257.00787 V 1103.622 l 18.897638,18.8977 h 75.590551 l 15.118111,-15.1181 h 30.23622 l 15.11811,15.1181 H 461.10236 L 480,1103.622 h 71.81102 l 18.89764,18.8977 h 672.75594 l 15.1181,-15.1181 h 30.2362 l 15.1181,15.1181 h 75.5906 l 18.8976,-18.8977 V -257.00787 l -18.8976,-18.89764 H 18.897638 Z"
       style="fill:none;stroke:#000000"
       id="path24" />
    <path
       d="m 459.59055,1073.3858 a 6.047245,6.047245 0 0 0 -12.09449,0 6.047245,6.047245 0 0 0 12.09449,0 z"
       style="fill:none;stroke:#000000"
       id="path25" />
    <path
       d="m 459.59055,1107.4016 a 6.047245,6.047245 0 0 0 -12.09449,0 6.047245,6.047245 0 0 0 12.09449,0 z"
       style="fill:none;stroke:#000000"
       id="path26" />
    <path
       d="m 875.33858,1073.3858 a 6.047245,6.047245 0 0 0 -12.09449,0 6.047245,6.047245 0 0 0 12.09449,0 z"
       style="fill:none;stroke:#000000"
       id="path27" />
    <path
       d="m 875.33858,1107.4016 a 6.047245,6.047245 0 0 0 -12.09449,0 6.047245,6.047245 0 0 0 12.09449,0 z"
       style="fill:none;stroke:#000000"
       id="path28" />
    <path
       d="m 1268.0315,347.71654 a 7.937008,7.937008 0 0 0 -15.874,0 7.937008,7.937008 0 0 0 15.874,0 z"
       style="fill:none;stroke:#000000"
       id="path29" />
    <path
       d="m 1268.0315,789.92126 a 7.937008,7.937008 0 0 0 -15.874,0 7.937008,7.937008 0 0 0 15.874,0 z"
       style="fill:none;stroke:#000000"
       id="path30" />
    <path
       d="m 404.40945,1003.4646 18.89764,-18.89767 h 181.41732 l 75.59055,75.59057 h 37.79528 l 75.59055,-75.59057 h 181.41732 l 18.89764,18.89767 h 52.91335 l 18.8977,-18.89767 h 18.8976 l 37.7953,-37.79528 h 68.0315 l 18.8976,-18.89763 V -105.82677 l -18.8976,-18.89764 H 207.87402 l -18.89764,18.89764 V 927.87402 l 18.89764,18.89763 h 68.03149 l 37.79528,37.79528 h 18.89764 l 18.89763,18.89767 z"
       style="fill:none;stroke:#000000"
       id="path31" />
    <path
       d="m 104.31496,1096.063 a 6.0472445,6.0472445 0 0 0 -12.094488,0 6.0472445,6.0472445 0 0 0 12.094488,0 z"
       style="fill:none;stroke:#000000"
       id="path32" />
    <path
       d="m 584.31496,1073.3858 a 6.047245,6.047245 0 0 0 -12.09449,0 6.047245,6.047245 0 0 0 12.09449,0 z"
       style="fill:none;stroke:#000000"
       id="path33" />
    <path
       d="m 584.31496,1107.4016 a 6.047245,6.047245 0 0 0 -12.09449,0 6.047245,6.047245 0 0 0 12.09449,0 z"
       style="fill:none;stroke:#000000"
       id="path34" />
    <path
       d="m 1366.2992,972.09449 a 5.6693,5.6693 0 0 0 -11.3386,0 5.6693,5.6693 0 0 0 11.3386,0 z"
       style="fill:none;stroke:#000000"
       id="path35" />
    <path
       d="m 43.464567,972.09449 a 5.6692915,5.6692915 0 0 0 -11.338583,0 5.6692915,5.6692915 0 0 0 11.338583,0 z"
       style="fill:none;stroke:#000000"
       id="path36" />
    <path
       d="m 1290.7087,-237.35433 a 5.6693,5.6693 0 0 0 -11.3386,0 5.6693,5.6693 0 0 0 11.3386,0 z"
       style="fill:none;stroke:#000000"
       id="path37" />
    <path
       d="m 119.05512,972.09449 a 5.669295,5.669295 0 0 0 -11.33859,0 5.669295,5.669295 0 0 0 11.33859,0 z"
       style="fill:none;stroke:#000000"
       id="path38" />
    <path
       d="m 167.81102,866.26772 a 5.6692915,5.6692915 0 0 0 -11.33858,0 5.6692915,5.6692915 0 0 0 11.33858,0 z"
       style="fill:none;stroke:#000000"
       id="path39" />
    <path
       d="m 1290.7087,972.09449 a 5.6693,5.6693 0 0 0 -11.3386,0 5.6693,5.6693 0 0 0 11.3386,0 z"
       style="fill:none;stroke:#000000"
       id="path40" />
    <path
       d="m 43.464567,-237.35433 a 5.6692915,5.6692915 0 0 0 -11.338583,0 5.6692915,5.6692915 0 0 0 11.338583,0 z"
       style="fill:none;stroke:#000000"
       id="path41" />
    <path
       d="m 1328.5039,1047.685 a 5.6692915,5.6692915 0 0 0 -11.3385,0 5.6692915,5.6692915 0 0 0 11.3385,0 z"
       style="fill:none;stroke:#000000"
       id="path42" />
    <path
       d="m 183.30709,745.32284 a 5.669295,5.669295 0 0 0 -11.33859,0 5.669295,5.669295 0 0 0 11.33859,0 z"
       style="fill:none;stroke:#000000"
       id="path43" />
    <path
       d="m 19.653543,438.04724 a 5.669291,5.669291 0 0 0 -11.338582,0 5.669291,5.669291 0 0 0 11.338582,0 z"
       style="fill:none;stroke:#000000"
       id="path44" />
    <path
       d="m 81.259843,1047.685 a 5.6692915,5.6692915 0 0 0 -11.338583,0 5.6692915,5.6692915 0 0 0 11.338583,0 z"
       style="fill:none;stroke:#000000"
       id="path45" />
    <path
       d="m 24.188976,866.26772 a 5.669291,5.669291 0 0 0 -11.338582,0 5.669291,5.669291 0 0 0 11.338582,0 z"
       style="fill:none;stroke:#000000"
       id="path46" />
    <path
       d="m 1366.2992,-237.35433 a 5.6693,5.6693 0 0 0 -11.3386,0 5.6693,5.6693 0 0 0 11.3386,0 z"
       style="fill:none;stroke:#000000"
       id="path47" />
    <path
       d="m 167.81102,510.99213 a 5.6692915,5.6692915 0 0 0 -11.33858,0 5.6692915,5.6692915 0 0 0 11.33858,0 z"
       style="fill:none;stroke:#000000"
       id="path48" />
    <path
       d="m 19.653543,745.32284 a 5.669291,5.669291 0 0 0 -11.338582,0 5.669291,5.669291 0 0 0 11.338582,0 z"
       style="fill:none;stroke:#000000"
       id="path49" />
    <path
       d="m 119.05512,-237.35433 a 5.669295,5.669295 0 0 0 -11.33859,0 5.669295,5.669295 0 0 0 11.33859,0 z"
       style="fill:none;stroke:#000000"
       id="path50" />
    <path
       d="m 183.30709,462.23622 a 5.669295,5.669295 0 0 0 -11.33859,0 5.669295,5.669295 0 0 0 11.33859,0 z"
       style="fill:none;stroke:#000000"
       id="path51" />
    <path
       d="m 24.188976,510.99213 a 5.669291,5.669291 0 0 0 -11.338582,0 5.669291,5.669291 0 0 0 11.338582,0 z"
       style="fill:none;stroke:#000000"
       id="path52" />
    <path
       d="m 181.41732,104.69291 a 5.6692915,5.6692915 0 0 0 -11.33858,0 5.6692915,5.6692915 0 0 0 11.33858,0 z"
       style="fill:none;stroke:#000000"
       id="path53" />
    <path
       d="m 62.362205,185.95276 a 5.6692915,5.6692915 0 0 0 -11.338583,0 5.6692915,5.6692915 0 0 0 11.338583,0 z"
       style="fill:none;stroke:#000000"
       id="path54" />
    <path
       d="m 18.897638,104.69291 a 5.6692915,5.6692915 0 0 0 -11.338583,0 5.6692915,5.6692915 0 0 0 11.338583,0 z"
       style="fill:none;stroke:#000000"
       id="path55" />
    <path
       d="m 62.362205,23.433071 a 5.6692915,5.6692915 0 0 0 -11.338583,0 5.6692915,5.6692915 0 0 0 11.338583,0 z"
       style="fill:none;stroke:#000000"
       id="path56" />
    <path
       d="m 459.59055,1046.9291 a 6.047245,6.047245 0 0 0 -12.09449,0 6.047245,6.047245 0 0 0 12.09449,0 z"
       style="fill:none;stroke:#000000"
       id="path57" />
    <path
       d="m 459.59055,1009.1339 a 6.047245,6.047245 0 0 0 -12.09449,0 6.047245,6.047245 0 0 0 12.09449,0 z"
       style="fill:none;stroke:#000000"
       id="path58" />
  </g>
</svg>
