0
SECTION
2
HEADER
9
$INSUNITS
70
4
9
$ACADVER
1
AC1014
9
$HANDSEED
5
FFFF
0
ENDSEC
0
SECTION
2
TABLES
0
TABLE
2
VPORT
5
8
100
AcDbSymbolTable
0
ENDTAB
0
TABLE
2
LTYPE
5
5
100
AcDbSymbolTable
0
LTYPE
5
14
100
AcDbSymbolTableRecord
100
AcDbLinetypeTableRecord
2
BYBLOCK
70
0
0
LTYPE
5
15
100
AcDbSymbolTableRecord
100
AcDbLinetypeTableRecord
2
BYLAYER
70
0
0
ENDTAB
0
TABLE
2
LAYER
5
2
100
AcDbSymbolTable
70
2
0
LAYER
5
50
100
AcDbSymbolTableRecord
100
AcDbLayerTableRecord
2
0
70
0
6
CONTINUOUS
0
ENDTAB
0
TABLE
2
STYLE
5
3
100
AcDbSymbolTable
70
1
0
STYLE
5
11
100
AcDbSymbolTableRecord
100
AcDbTextStyleTableRecord
2
STANDARD
70
0
0
ENDTAB
0
TABLE
2
VIEW
5
6
100
AcDbSymbolTable
70
0
0
ENDTAB
0
TABLE
2
UCS
5
7
100
AcDbSymbolTable
70
0
0
ENDTAB
0
TABLE
2
APPID
5
9
100
AcDbSymbolTable
70
2
0
APPID
5
12
100
AcDbSymbolTableRecord
100
AcDbRegAppTableRecord
2
ACAD
70
0
0
ENDTAB
0
TABLE
2
DIMSTYLE
5
A
100
AcDbSymbolTable
70
1
0
ENDTAB
0
TABLE
2
BLOCK_RECORD
5
1
100
AcDbSymbolTable
70
1
0
BLOCK_RECORD
5
1F
100
AcDbSymbolTableRecord
100
AcDbBlockTableRecord
2
*MODEL_SPACE
0
BLOCK_RECORD
5
1B
100
AcDbSymbolTableRecord
100
AcDbBlockTableRecord
2
*PAPER_SPACE
0
ENDTAB
0
ENDSEC
0
SECTION
2
BLOCKS
0
BLOCK
5
20
100
AcDbEntity
100
AcDbBlockBegin
2
*MODEL_SPACE
0
ENDBLK
5
21
100
AcDbEntity
100
AcDbBlockEnd
0
BLOCK
5
1C
100
AcDbEntity
100
AcDbBlockBegin
2
*PAPER_SPACE
0
ENDBLK
5
1D
100
AcDbEntity
100
AcDbBlockEnd
0
ENDSEC
0
SECTION
2
ENTITIES
0
CIRCLE
5
100
100
AcDbEntity
8
0
100
AcDbCircle
10
318.59999999999991
20
4.9000000000000057
30
0
40
2.5499999999999998
210
0
220
0
230
1
0
CIRCLE
5
101
100
AcDbEntity
8
0
100
AcDbCircle
10
318.59999999999991
20
28.100000000000005
30
0
40
2.5499999999999998
210
0
220
0
230
1
0
CIRCLE
5
102
100
AcDbEntity
8
0
100
AcDbCircle
10
295.39999999999992
20
28.100000000000005
30
0
40
2.5499999999999998
210
0
220
0
230
1
0
CIRCLE
5
103
100
AcDbEntity
8
0
100
AcDbCircle
10
295.39999999999992
20
4.9000000000000057
30
0
40
2.5499999999999998
210
0
220
0
230
1
0
CIRCLE
5
104
100
AcDbEntity
8
0
100
AcDbCircle
10
281.59999999999991
20
4.9000000000000057
30
0
40
2.5499999999999998
210
0
220
0
230
1
0
CIRCLE
5
105
100
AcDbEntity
8
0
100
AcDbCircle
10
258.39999999999992
20
4.9000000000000057
30
0
40
2.5499999999999998
210
0
220
0
230
1
0
CIRCLE
5
106
100
AcDbEntity
8
0
100
AcDbCircle
10
258.39999999999992
20
28.100000000000005
30
0
40
2.5499999999999998
210
0
220
0
230
1
0
CIRCLE
5
107
100
AcDbEntity
8
0
100
AcDbCircle
10
281.59999999999991
20
28.100000000000005
30
0
40
2.5499999999999998
210
0
220
0
230
1
0
CIRCLE
5
108
100
AcDbEntity
8
0
100
AcDbCircle
10
111.59999999999988
20
4.9000000000000057
30
0
40
2.5499999999999998
210
0
220
0
230
1
0
CIRCLE
5
109
100
AcDbEntity
8
0
100
AcDbCircle
10
111.59999999999988
20
28.100000000000005
30
0
40
2.5499999999999998
210
0
220
0
230
1
0
CIRCLE
5
110
100
AcDbEntity
8
0
100
AcDbCircle
10
88.399999999999878
20
28.100000000000005
30
0
40
2.5499999999999998
210
0
220
0
230
1
0
CIRCLE
5
111
100
AcDbEntity
8
0
100
AcDbCircle
10
88.399999999999878
20
4.9000000000000057
30
0
40
2.5499999999999998
210
0
220
0
230
1
0
CIRCLE
5
112
100
AcDbEntity
8
0
100
AcDbCircle
10
74.599999999999852
20
4.9000000000000057
30
0
40
2.5499999999999998
210
0
220
0
230
1
0
CIRCLE
5
113
100
AcDbEntity
8
0
100
AcDbCircle
10
74.599999999999852
20
28.100000000000005
30
0
40
2.5499999999999998
210
0
220
0
230
1
0
CIRCLE
5
114
100
AcDbEntity
8
0
100
AcDbCircle
10
51.399999999999864
20
28.100000000000005
30
0
40
2.5499999999999998
210
0
220
0
230
1
0
CIRCLE
5
115
100
AcDbEntity
8
0
100
AcDbCircle
10
51.399999999999864
20
4.9000000000000057
30
0
40
2.5499999999999998
210
0
220
0
230
1
0
CIRCLE
5
116
100
AcDbEntity
8
0
100
AcDbCircle
10
39.999999999999851
20
7.0000000000000009
30
0
40
1.6000000000000003
210
0
220
0
230
1
0
CIRCLE
5
117
100
AcDbEntity
8
0
100
AcDbCircle
10
330.99999999999989
20
7.0000000000000009
30
0
40
1.6000000000000003
210
0
220
0
230
1
0
CIRCLE
5
118
100
AcDbEntity
8
0
100
AcDbCircle
10
342.99999999999989
20
7.0000000000000009
30
0
40
1.6000000000000003
210
0
220
0
230
1
0
LWPOLYLINE
5
119
100
AcDbEntity
8
0
100
AcDbPolyline
90
20
70
1
43
0.0
10
-1.421e-13
20
365
10
-1.421e-13
20
5
10
4.999999999999857
20
1.1102230246251565e-15
10
24.999999999999893
20
0
10
28.999999999999861
20
4
10
36.999999999999893
20
4
10
40.999999999999901
20
5.5511151231257827e-16
10
121.99999999999991
20
0
10
126.9999999999999
20
4.9999999999999991
10
145.99999999999989
20
5
10
150.99999999999989
20
1.1102230246251565e-15
10
328.99999999999989
20
0
10
332.99999999999989
20
4
10
340.99999999999989
20
4
10
344.99999999999989
20
0
10
364.99999999999994
20
0
10
369.99999999999994
20
4.9999999999999991
10
369.99999999999994
20
365
10
364.99999999999994
20
370
10
4.9999999999998579
20
370
0
CIRCLE
5
120
100
AcDbEntity
8
0
100
AcDbCircle
10
119.99999999999991
20
13
30
0
40
1.6000000000000003
210
0
220
0
230
1
0
CIRCLE
5
121
100
AcDbEntity
8
0
100
AcDbCircle
10
119.99999999999991
20
4
30
0
40
1.6000000000000003
210
0
220
0
230
1
0
CIRCLE
5
122
100
AcDbEntity
8
0
100
AcDbCircle
10
229.99999999999989
20
13
30
0
40
1.6000000000000003
210
0
220
0
230
1
0
CIRCLE
5
123
100
AcDbEntity
8
0
100
AcDbCircle
10
229.99999999999989
20
4
30
0
40
1.6000000000000003
210
0
220
0
230
1
0
CIRCLE
5
124
100
AcDbEntity
8
0
100
AcDbCircle
10
333.39999999999998
20
205
30
0
40
2.1000000000000001
210
0
220
0
230
1
0
CIRCLE
5
125
100
AcDbEntity
8
0
100
AcDbCircle
10
333.39999999999998
20
88
30
0
40
2.1000000000000001
210
0
220
0
230
1
0
LWPOLYLINE
5
126
100
AcDbEntity
8
0
100
AcDbPolyline
90
24
70
1
43
0.0
10
106.9999999999999
20
31.500000000000004
10
111.9999999999999
20
36.5
10
159.99999999999986
20
36.5
10
179.99999999999989
20
16.500000000000004
10
189.99999999999989
20
16.5
10
209.99999999999989
20
36.499999999999993
10
257.99999999999989
20
36.5
10
262.99999999999989
20
31.500000000000004
10
276.99999999999989
20
31.500000000000004
10
281.99999999999989
20
36.5
10
286.99999999999989
20
36.5
10
296.99999999999989
20
46.5
10
314.99999999999989
20
46.5
10
319.99999999999989
20
51.5
10
319.99999999999989
20
325
10
314.99999999999989
20
330
10
54.999999999999893
20
330
10
49.999999999999893
20
325
10
49.999999999999893
20
51.499999999999986
10
54.999999999999893
20
46.5
10
72.999999999999872
20
46.5
10
82.999999999999886
20
36.5
10
87.999999999999886
20
36.5
10
92.999999999999886
20
31.500000000000004
0
CIRCLE
5
127
100
AcDbEntity
8
0
100
AcDbCircle
10
25.999999999999865
20
7.0000000000000009
30
0
40
1.6000000000000003
210
0
220
0
230
1
0
CIRCLE
5
128
100
AcDbEntity
8
0
100
AcDbCircle
10
152.99999999999986
20
13
30
0
40
1.6000000000000003
210
0
220
0
230
1
0
CIRCLE
5
129
100
AcDbEntity
8
0
100
AcDbCircle
10
152.99999999999986
20
4
30
0
40
1.6000000000000003
210
0
220
0
230
1
0
CIRCLE
5
130
100
AcDbEntity
8
0
100
AcDbCircle
10
359.99999999999989
20
39.799999999999997
30
0
40
1.5000000000000002
210
0
220
0
230
1
0
CIRCLE
5
131
100
AcDbEntity
8
0
100
AcDbCircle
10
9.9999999999998579
20
39.799999999999997
30
0
40
1.5000000000000002
210
0
220
0
230
1
0
CIRCLE
5
132
100
AcDbEntity
8
0
100
AcDbCircle
10
339.99999999999994
20
359.80000000000007
30
0
40
1.5000000000000002
210
0
220
0
230
1
0
CIRCLE
5
133
100
AcDbEntity
8
0
100
AcDbCircle
10
29.999999999999893
20
39.799999999999997
30
0
40
1.5000000000000002
210
0
220
0
230
1
0
CIRCLE
5
134
100
AcDbEntity
8
0
100
AcDbCircle
10
42.899999999999849
20
67.799999999999997
30
0
40
1.5000000000000002
210
0
220
0
230
1
0
CIRCLE
5
135
100
AcDbEntity
8
0
100
AcDbCircle
10
339.99999999999994
20
39.799999999999997
30
0
40
1.5000000000000002
210
0
220
0
230
1
0
CIRCLE
5
136
100
AcDbEntity
8
0
100
AcDbCircle
10
9.9999999999998579
20
359.80000000000007
30
0
40
1.5000000000000002
210
0
220
0
230
1
0
CIRCLE
5
137
100
AcDbEntity
8
0
100
AcDbCircle
10
349.99999999999989
20
19.800000000000001
30
0
40
1.5000000000000002
210
0
220
0
230
1
0
CIRCLE
5
138
100
AcDbEntity
8
0
100
AcDbCircle
10
46.999999999999893
20
99.800000000000011
30
0
40
1.5000000000000002
210
0
220
0
230
1
0
CIRCLE
5
139
100
AcDbEntity
8
0
100
AcDbCircle
10
3.6999999999998612
20
181.09999999999999
30
0
40
1.5000000000000002
210
0
220
0
230
1
0
CIRCLE
5
140
100
AcDbEntity
8
0
100
AcDbCircle
10
19.999999999999858
20
19.800000000000001
30
0
40
1.5000000000000002
210
0
220
0
230
1
0
CIRCLE
5
141
100
AcDbEntity
8
0
100
AcDbCircle
10
4.8999999999998636
20
67.799999999999997
30
0
40
1.5000000000000002
210
0
220
0
230
1
0
CIRCLE
5
142
100
AcDbEntity
8
0
100
AcDbCircle
10
359.99999999999989
20
359.80000000000007
30
0
40
1.5000000000000002
210
0
220
0
230
1
0
CIRCLE
5
143
100
AcDbEntity
8
0
100
AcDbCircle
10
42.899999999999849
20
161.80000000000004
30
0
40
1.5000000000000002
210
0
220
0
230
1
0
CIRCLE
5
144
100
AcDbEntity
8
0
100
AcDbCircle
10
3.6999999999998612
20
99.800000000000011
30
0
40
1.5000000000000002
210
0
220
0
230
1
0
CIRCLE
5
145
100
AcDbEntity
8
0
100
AcDbCircle
10
29.999999999999893
20
359.80000000000007
30
0
40
1.5000000000000002
210
0
220
0
230
1
0
CIRCLE
5
146
100
AcDbEntity
8
0
100
AcDbCircle
10
46.999999999999893
20
174.69999999999999
30
0
40
1.5000000000000002
210
0
220
0
230
1
0
CIRCLE
5
147
100
AcDbEntity
8
0
100
AcDbCircle
10
4.8999999999998636
20
161.80000000000004
30
0
40
1.5000000000000002
210
0
220
0
230
1
0
CIRCLE
5
148
100
AcDbEntity
8
0
100
AcDbCircle
10
46.499999999999901
20
269.30000000000001
30
0
40
1.5000000000000002
210
0
220
0
230
1
0
CIRCLE
5
149
100
AcDbEntity
8
0
100
AcDbCircle
10
14.99999999999986
20
247.80000000000001
30
0
40
1.5000000000000002
210
0
220
0
230
1
0
CIRCLE
5
150
100
AcDbEntity
8
0
100
AcDbCircle
10
3.4999999999998579
20
269.30000000000001
30
0
40
1.5000000000000002
210
0
220
0
230
1
0
CIRCLE
5
151
100
AcDbEntity
8
0
100
AcDbCircle
10
14.99999999999986
20
290.80000000000001
30
0
40
1.5000000000000002
210
0
220
0
230
1
0
CIRCLE
5
152
100
AcDbEntity
8
0
100
AcDbCircle
10
119.99999999999991
20
20
30
0
40
1.6000000000000003
210
0
220
0
230
1
0
CIRCLE
5
153
100
AcDbEntity
8
0
100
AcDbCircle
10
119.99999999999991
20
30
30
0
40
1.6000000000000003
210
0
220
0
230
1
0
ENDSEC
0
SECTION
2
OBJECTS
0
DICTIONARY
5
C
100
AcDbDictionary
3
ACAD_GROUP
350
D
3
ACAD_MLINESTYLE
350
17
0
DICTIONARY
5
D
100
AcDbDictionary
0
DICTIONARY
5
1A
330
C
100
AcDbDictionary
0
DICTIONARY
5
17
100
AcDbDictionary
0
ENDSEC
0
EOF
